<?xml version="1.0" encoding="utf-8"?>
<!-- Generator: Adobe Illustrator 23.0.1, SVG Export Plug-In . SVG Version: 6.00 Build 0)  -->
<svg version="1.1" id="Layer_1" xmlns="http://www.w3.org/2000/svg" xmlns:xlink="http://www.w3.org/1999/xlink" x="0px" y="0px"
	 viewBox="0 0 1920 1453" style="enable-background:new 0 0 1920 1453;" xml:space="preserve">
<style type="text/css">
	.st0{fill:url(#SVGID_1_);}
	.st1{opacity:0.45;fill:#E3F2FA;}
	.st2{opacity:0.45;fill:#57D0CC;}
	.st3{opacity:0.45;fill:#59B0E0;}
	.st4{opacity:0.4;fill:#E3F2FA;}
	.st5{opacity:0.4;fill:#57D0CC;}
	.st6{opacity:0.4;fill:#59B0E0;}
	.st7{display:none;}
	.st8{display:inline;}
	.st9{display:inline;fill:none;}
	.st10{fill:#3DA0D9;}
	.st11{font-family:'DynamicsOCR2';}
	.st12{font-size:111px;}
	.st13{fill:#595959;}
	.st14{font-family:'ArialMT';}
	.st15{font-size:39.1942px;}
	.st16{fill:#57D0CC;}
	.st17{font-size:41.117px;}
	.st18{font-family:'MyriadPro-Regular';}
	.st19{display:none;fill:#E4F4FB;}
	.st20{display:inline;fill:#595959;}
	.st21{font-family:'ArialNarrow';}
	.st22{font-size:27.5657px;}
	.st23{display:none;fill:url(#SVGID_4_);}
	.st24{display:inline;fill:#FFFFFF;}
	.st25{font-family:'Arial-BoldMT';}
</style>
<linearGradient id="SVGID_1_" gradientUnits="userSpaceOnUse" x1="1492.1624" y1="1690.1543" x2="423.8377" y2="-237.1543">
	<stop  offset="0.4777" style="stop-color:#FFFFFF"/>
	<stop  offset="0.6665" style="stop-color:#E8F4FB"/>
	<stop  offset="1" style="stop-color:#C3E2F4"/>
</linearGradient>
<rect x="-4" class="st0" width="1924" height="1453"/>
<image style="display:none;overflow:visible;" width="564" height="721" xlink:href="how-it-works.png"  transform="matrix(1 0 0 1 -60 -897)">
</image>
<image style="display:none;overflow:visible;" width="1440" height="860" xlink:href="A3E6EED4.jpg"  transform="matrix(1 0 0 1 1062 -918)">
</image>
<path class="st1" d="M356.95,336.99c3.99-5.45,12.12-5.46,16.12-0.02l132.57,180.12c2.59,3.52,2.6,8.31,0.01,11.84L373.05,710.01
	c-3.99,5.45-12.12,5.46-16.12,0.02L224.35,529.91c-2.59-3.52-2.6-8.31-0.01-11.84L356.95,336.99z"/>
<path class="st1" d="M287.74,154.02c3.45-4.71,10.48-4.72,13.94-0.02l114.63,155.74c2.24,3.04,2.24,7.19,0.01,10.23L301.66,476.56
	c-3.45,4.71-10.48,4.72-13.94,0.02L173.09,320.84c-2.24-3.04-2.24-7.19-0.01-10.23L287.74,154.02z"/>
<path class="st2" d="M200.39,483.07c2.99-4.09,9.1-4.1,12.1-0.01l99.5,135.18c1.94,2.64,1.95,6.24,0.01,8.88l-99.53,135.91
	c-2.99,4.09-9.1,4.1-12.1,0.01l-99.5-135.18c-1.94-2.64-1.95-6.24-0.01-8.88L200.39,483.07z"/>
<path class="st3" d="M187.29,158.36c1.55-2.12,4.72-2.13,6.28-0.01l51.67,70.2c1.01,1.37,1.01,3.24,0.01,4.61l-51.68,70.58
	c-1.55,2.12-4.72,2.13-6.28,0.01l-51.67-70.2c-1.01-1.37-1.01-3.24-0.01-4.61L187.29,158.36z"/>
<path class="st4" d="M1595.05,881.6c-3.99,5.45-12.12,5.46-16.12,0.02L1446.35,701.5c-2.59-3.52-2.6-8.31-0.01-11.84l132.61-181.09
	c3.99-5.45,12.12-5.46,16.12-0.02l132.57,180.12c2.59,3.52,2.6,8.31,0.01,11.84L1595.05,881.6z"/>
<path class="st4" d="M1664.26,1064.56c-3.45,4.71-10.48,4.72-13.94,0.02l-114.63-155.74c-2.24-3.04-2.24-7.19-0.01-10.23
	l114.67-156.58c3.45-4.71,10.48-4.72,13.94-0.02l114.63,155.74c2.24,3.04,2.24,7.19,0.01,10.23L1664.26,1064.56z"/>
<path class="st5" d="M1751.61,735.52c-2.99,4.09-9.1,4.1-12.1,0.01l-99.5-135.18c-1.94-2.64-1.95-6.24-0.01-8.88l99.53-135.91
	c2.99-4.09,9.1-4.1,12.1-0.01l99.5,135.18c1.94,2.64,1.95,6.24,0.01,8.88L1751.61,735.52z"/>
<path class="st6" d="M1764.71,1060.23c-1.55,2.12-4.72,2.13-6.28,0.01l-51.67-70.2c-1.01-1.37-1.01-3.24-0.01-4.61l51.68-70.58
	c1.55-2.12,4.72-2.13,6.28-0.01l51.67,70.2c1.01,1.37,1.01,3.24,0.01,4.61L1764.71,1060.23z"/>
<g class="st7">
	<defs>
		<rect id="SVGID_2_" x="1476" y="42" width="400" height="260"/>
	</defs>
	<clipPath id="SVGID_3_" class="st8">
		<use xlink:href="#SVGID_2_"  style="overflow:visible;"/>
	</clipPath>
	<g style="display:inline;clip-path:url(#SVGID_3_);">
		
			<image style="overflow:visible;" width="400" height="260" xlink:href="century-debt-support_toe.png"  transform="matrix(1 0 0 1 1476 42)">
		</image>
	</g>
</g>
<g class="st7">
	<rect x="403.94" y="73.42" class="st9" width="1039.06" height="406.58"/>
	<text transform="matrix(1 0 0 1 403.9414 168.3262)" class="st8"><tspan x="0" y="0" class="st10 st11 st12">The First Step </tspan><tspan x="0" y="133.2" class="st10 st11 st12">to Become </tspan><tspan x="0" y="266.4" class="st10 st11 st12">Debt Free</tspan></text>
</g>
<image style="display:none;overflow:visible;" width="1440" height="860" xlink:href="A3E6EED6.jpg"  transform="matrix(1 0 0 1 2267 220)">
</image>
<g class="st7">
	<text transform="matrix(1 0 0 1 701.3936 553.2402)" class="st8"><tspan x="0" y="0" class="st13 st14 st15">Start your </tspan><tspan x="180.79" y="0" class="st16 st14 st15">FREE</tspan><tspan x="285.33" y="0" class="st13 st14 st15"> debt evaluation today</tspan></text>
</g>
<g class="st7">
	<text transform="matrix(1 0 0 1 563.2969 616.8438)" class="st8"><tspan x="0" y="0" class="st10 st11 st17">Let</tspan><tspan x="85.11" y="0" class="st10 st18 st17">’</tspan><tspan x="93.62" y="0" class="st10 st11 st17">s Get The Conversation Started</tspan></text>
</g>
<path class="st19" d="M981,701H612c-3.87,0-7-3.13-7-7v-30c0-3.87,3.13-7,7-7h369c3.87,0,7,3.13,7,7v30
	C988,697.87,984.87,701,981,701z"/>
<path class="st19" d="M981,757H612c-3.87,0-7-3.13-7-7v-30c0-3.87,3.13-7,7-7h369c3.87,0,7,3.13,7,7v30
	C988,753.87,984.87,757,981,757z"/>
<path class="st19" d="M981,813H612c-3.87,0-7-3.13-7-7v-30c0-3.87,3.13-7,7-7h369c3.87,0,7,3.13,7,7v30
	C988,809.87,984.87,813,981,813z"/>
<path class="st19" d="M981,874H612c-3.87,0-7-3.13-7-7v-30c0-3.87,3.13-7,7-7h369c3.87,0,7,3.13,7,7v30
	C988,870.87,984.87,874,981,874z"/>
<path class="st19" d="M981,935H612c-3.87,0-7-3.13-7-7v-30c0-3.87,3.13-7,7-7h369c3.87,0,7,3.13,7,7v30
	C988,931.87,984.87,935,981,935z"/>
<path class="st19" d="M1377,935h-369c-3.87,0-7-3.13-7-7v-30c0-3.87,3.13-7,7-7h369c3.87,0,7,3.13,7,7v30
	C1384,931.87,1380.87,935,1377,935z"/>
<path class="st19" d="M1377,874h-369c-3.87,0-7-3.13-7-7v-30c0-3.87,3.13-7,7-7h369c3.87,0,7,3.13,7,7v30
	C1384,870.87,1380.87,874,1377,874z"/>
<path class="st19" d="M1377,817h-369c-3.87,0-7-3.13-7-7v-30c0-3.87,3.13-7,7-7h369c3.87,0,7,3.13,7,7v30
	C1384,813.87,1380.87,817,1377,817z"/>
<path class="st19" d="M1377,760h-369c-3.87,0-7-3.13-7-7v-30c0-3.87,3.13-7,7-7h369c3.87,0,7,3.13,7,7v30
	C1384,756.87,1380.87,760,1377,760z"/>
<g class="st7">
	<text transform="matrix(1 0 0 1 621.7129 691.3662)" class="st20 st21 st22">Name</text>
</g>
<g class="st7">
	<text transform="matrix(1 0 0 1 621.7129 745.3662)" class="st20 st21 st22">Email</text>
</g>
<g class="st7">
	<text transform="matrix(1 0 0 1 621.7129 806.3662)" class="st20 st21 st22">Your US State</text>
</g>
<g class="st7">
	<text transform="matrix(1 0 0 1 621.7129 860.3662)" class="st20 st21 st22">Estimated Debt Owed</text>
</g>
<g class="st7">
	<text transform="matrix(1 0 0 1 1014.7129 806.3662)" class="st20 st21 st22">Your Zip Code</text>
</g>
<g class="st7">
	<text transform="matrix(1 0 0 1 1014.7129 745.3662)" class="st20 st21 st22">Phone</text>
</g>
<g class="st7">
	<text transform="matrix(1 0 0 1 1014.7129 860.3662)" class="st20 st21 st22">Are you late on your payments?</text>
</g>
<g class="st7">
	<text transform="matrix(1 0 0 1 621.7129 923.3662)" class="st20 st21 st22">Tell us the best times to call you</text>
</g>
<g class="st7">
	<text transform="matrix(1 0 0 1 1014.7129 923.3662)" class="st20 st21 st22">How did you hear about us</text>
</g>
<linearGradient id="SVGID_4_" gradientUnits="userSpaceOnUse" x1="991" y1="1089.4756" x2="991" y2="1029.5055" gradientTransform="matrix(-1 0 0 -1 1982 2063)">
	<stop  offset="0.3268" style="stop-color:#F99F19"/>
	<stop  offset="0.3298" style="stop-color:#F99F19"/>
	<stop  offset="0.7172" style="stop-color:#F68D15"/>
	<stop  offset="1" style="stop-color:#F58713"/>
</linearGradient>
<path class="st23" d="M769.5,973.52h443c13.53,0,24.5,10.97,24.5,24.5v10.97c0,13.53-10.97,24.5-24.5,24.5h-443
	c-13.53,0-24.5-10.97-24.5-24.5v-10.97C745,984.49,755.97,973.52,769.5,973.52z"/>
<g class="st7">
	<text transform="matrix(1 0 0 1 813.3237 1015.7461)" class="st24 st25 st15">Submit Information</text>
</g>
<g class="st7">
	<defs>
		<rect id="SVGID_5_" x="446" y="1110" width="1083" height="305"/>
	</defs>
	<clipPath id="SVGID_6_" class="st8">
		<use xlink:href="#SVGID_5_"  style="overflow:visible;"/>
	</clipPath>
	<g style="display:inline;clip-path:url(#SVGID_6_);">
		<image style="overflow:visible;" width="1440" height="860" xlink:href="A3E6EEEC.jpg"  transform="matrix(1 0 0 1 201 866)">
		</image>
	</g>
</g>
<g class="st7">
	<defs>
		<rect id="SVGID_7_" x="-1671" y="760" width="1083" height="305"/>
	</defs>
	<clipPath id="SVGID_8_" class="st8">
		<use xlink:href="#SVGID_7_"  style="overflow:visible;"/>
	</clipPath>
	<g style="display:inline;clip-path:url(#SVGID_8_);">
		<image style="overflow:visible;" width="1440" height="860" xlink:href="A3E6EEED.jpg"  transform="matrix(1 0 0 1 -1916 516)">
		</image>
	</g>
</g>
</svg>
