<?xml version="1.0" encoding="utf-8"?>
<!-- Generator: Adobe Illustrator 23.0.1, SVG Export Plug-In . SVG Version: 6.00 Build 0)  -->
<svg version="1.1" id="Layer_1" xmlns="http://www.w3.org/2000/svg" xmlns:xlink="http://www.w3.org/1999/xlink" x="0px" y="0px"
	 viewBox="0 0 1023 419" style="enable-background:new 0 0 1023 419;" xml:space="preserve">
<style type="text/css">
	.st0{display:none;fill:url(#SVGID_1_);}
	.st1{display:none;opacity:0.45;fill:#E3F2FA;}
	.st2{display:none;opacity:0.45;fill:#57D0CC;}
	.st3{display:none;opacity:0.45;fill:#59B0E0;}
	.st4{display:none;opacity:0.4;fill:#E3F2FA;}
	.st5{display:none;opacity:0.4;fill:#57D0CC;}
	.st6{display:none;opacity:0.4;fill:#59B0E0;}
	.st7{display:none;}
	.st8{display:inline;}
	.st9{fill:none;}
	.st10{fill:#3DA0D9;}
	.st11{font-family:'DynamicsOCR2';}
	.st12{font-size:111px;}
	.st13{display:none;fill:#E4F4FB;}
	.st14{display:none;fill:url(#SVGID_4_);}
</style>
<linearGradient id="SVGID_1_" gradientUnits="userSpaceOnUse" x1="1088.1624" y1="1629.1543" x2="19.8377" y2="-298.1543">
	<stop  offset="0.4777" style="stop-color:#FFFFFF"/>
	<stop  offset="0.6665" style="stop-color:#E8F4FB"/>
	<stop  offset="1" style="stop-color:#C3E2F4"/>
</linearGradient>
<rect x="-408" y="-61" class="st0" width="1924" height="1453"/>
<image style="display:none;overflow:visible;" width="564" height="721" xlink:href="how-it-works.png"  transform="matrix(1 0 0 1 -464 -958)">
</image>
<image style="display:none;overflow:visible;" width="1440" height="860" xlink:href="556587D0.jpg"  transform="matrix(1 0 0 1 658 -979)">
</image>
<path class="st1" d="M-47.05,275.99c3.99-5.45,12.12-5.46,16.12-0.02l132.57,180.12c2.59,3.52,2.6,8.31,0.01,11.84L-30.95,649.01
	c-3.99,5.45-12.12,5.46-16.12,0.02l-132.57-180.12c-2.59-3.52-2.6-8.31-0.01-11.84L-47.05,275.99z"/>
<path class="st1" d="M-116.26,93.02c3.45-4.71,10.48-4.72,13.94-0.02L12.32,248.75c2.24,3.04,2.24,7.19,0.01,10.23l-114.67,156.58
	c-3.45,4.71-10.48,4.72-13.94,0.02l-114.63-155.74c-2.24-3.04-2.24-7.19-0.01-10.23L-116.26,93.02z"/>
<path class="st2" d="M-203.61,422.07c2.99-4.09,9.1-4.1,12.1-0.01l99.5,135.18c1.94,2.64,1.95,6.24,0.01,8.88l-99.53,135.91
	c-2.99,4.09-9.1,4.1-12.1,0.01l-99.5-135.18c-1.94-2.64-1.95-6.24-0.01-8.88L-203.61,422.07z"/>
<path class="st3" d="M-216.71,97.36c1.55-2.12,4.72-2.13,6.28-0.01l51.67,70.2c1.01,1.37,1.01,3.24,0.01,4.61l-51.68,70.58
	c-1.55,2.12-4.72,2.13-6.28,0.01l-51.67-70.2c-1.01-1.37-1.01-3.24-0.01-4.61L-216.71,97.36z"/>
<path class="st4" d="M1191.05,820.6c-3.99,5.45-12.12,5.46-16.12,0.02L1042.35,640.5c-2.59-3.52-2.6-8.31-0.01-11.84l132.61-181.09
	c3.99-5.45,12.12-5.46,16.12-0.02l132.57,180.12c2.59,3.52,2.6,8.31,0.01,11.84L1191.05,820.6z"/>
<path class="st4" d="M1260.26,1003.56c-3.45,4.71-10.48,4.72-13.94,0.02l-114.63-155.74c-2.24-3.04-2.24-7.19-0.01-10.23
	l114.67-156.58c3.45-4.71,10.48-4.72,13.94-0.02l114.63,155.74c2.24,3.04,2.24,7.19,0.01,10.23L1260.26,1003.56z"/>
<path class="st5" d="M1347.61,674.52c-2.99,4.09-9.1,4.1-12.1,0.01l-99.5-135.18c-1.94-2.64-1.95-6.24-0.01-8.88l99.53-135.91
	c2.99-4.09,9.1-4.1,12.1-0.01l99.5,135.18c1.94,2.64,1.95,6.24,0.01,8.88L1347.61,674.52z"/>
<path class="st6" d="M1360.71,999.23c-1.55,2.12-4.72,2.13-6.28,0.01l-51.67-70.2c-1.01-1.37-1.01-3.24-0.01-4.61l51.68-70.58
	c1.55-2.12,4.72-2.13,6.28-0.01l51.67,70.2c1.01,1.37,1.01,3.24,0.01,4.61L1360.71,999.23z"/>
<g class="st7">
	<defs>
		<rect id="SVGID_2_" x="1072" y="-19" width="400" height="260"/>
	</defs>
	<clipPath id="SVGID_3_" class="st8">
		<use xlink:href="#SVGID_2_"  style="overflow:visible;"/>
	</clipPath>
	<g style="display:inline;clip-path:url(#SVGID_3_);">
		
			<image style="overflow:visible;" width="400" height="260" xlink:href="century-debt-support_toe.png"  transform="matrix(1 0 0 1 1072 -19)">
		</image>
	</g>
</g>
<g>
	<rect x="-0.06" y="12.42" class="st9" width="1039.06" height="406.58"/>
	<text transform="matrix(1 0 0 1 16.4258 107.3262)"><tspan x="0" y="0" class="st10 st11 st12">The First Step </tspan><tspan x="83.41" y="133.2" class="st10 st11 st12">to Becoming </tspan><tspan x="178.93" y="266.4" class="st10 st11 st12">Debt Free</tspan></text>
</g>
<image style="display:none;overflow:visible;" width="1440" height="860" xlink:href="556587D1.jpg"  transform="matrix(1 0 0 1 1863 159)">
</image>
<g class="st7">
	<text transform="matrix(1 0 0 1 297.3936 492.2402)" class="st8"><tspan x="0" y="0" style="fill:#595959; font-family:'ArialMT'; font-size:39.1942px;">Start your </tspan><tspan x="180.79" y="0" style="fill:#57D0CC; font-family:'ArialMT'; font-size:39.1942px;">FREE</tspan><tspan x="285.33" y="0" style="fill:#595959; font-family:'ArialMT'; font-size:39.1942px;"> debt evaluation today</tspan></text>
</g>
<g class="st7">
	<text transform="matrix(1 0 0 1 159.2969 555.8438)" class="st8"><tspan x="0" y="0" class="st10 st11" style="font-size:41.117px;">Let</tspan><tspan x="85.11" y="0" class="st10" style="font-family:'MyriadPro-Regular'; font-size:41.117px;">’</tspan><tspan x="93.62" y="0" class="st10 st11" style="font-size:41.117px;">s Get The Conversation Started</tspan></text>
</g>
<path class="st13" d="M577,640H208c-3.87,0-7-3.13-7-7v-30c0-3.87,3.13-7,7-7h369c3.87,0,7,3.13,7,7v30
	C584,636.87,580.87,640,577,640z"/>
<path class="st13" d="M577,696H208c-3.87,0-7-3.13-7-7v-30c0-3.87,3.13-7,7-7h369c3.87,0,7,3.13,7,7v30
	C584,692.87,580.87,696,577,696z"/>
<path class="st13" d="M577,752H208c-3.87,0-7-3.13-7-7v-30c0-3.87,3.13-7,7-7h369c3.87,0,7,3.13,7,7v30
	C584,748.87,580.87,752,577,752z"/>
<path class="st13" d="M577,813H208c-3.87,0-7-3.13-7-7v-30c0-3.87,3.13-7,7-7h369c3.87,0,7,3.13,7,7v30
	C584,809.87,580.87,813,577,813z"/>
<path class="st13" d="M577,874H208c-3.87,0-7-3.13-7-7v-30c0-3.87,3.13-7,7-7h369c3.87,0,7,3.13,7,7v30
	C584,870.87,580.87,874,577,874z"/>
<path class="st13" d="M973,874H604c-3.87,0-7-3.13-7-7v-30c0-3.87,3.13-7,7-7h369c3.87,0,7,3.13,7,7v30
	C980,870.87,976.87,874,973,874z"/>
<path class="st13" d="M973,813H604c-3.87,0-7-3.13-7-7v-30c0-3.87,3.13-7,7-7h369c3.87,0,7,3.13,7,7v30
	C980,809.87,976.87,813,973,813z"/>
<path class="st13" d="M973,756H604c-3.87,0-7-3.13-7-7v-30c0-3.87,3.13-7,7-7h369c3.87,0,7,3.13,7,7v30
	C980,752.87,976.87,756,973,756z"/>
<path class="st13" d="M973,699H604c-3.87,0-7-3.13-7-7v-30c0-3.87,3.13-7,7-7h369c3.87,0,7,3.13,7,7v30
	C980,695.87,976.87,699,973,699z"/>
<g class="st7">
	
		<text transform="matrix(1 0 0 1 217.7129 630.3662)" style="display:inline;fill:#595959; font-family:'ArialNarrow'; font-size:27.5657px;">Name</text>
</g>
<g class="st7">
	
		<text transform="matrix(1 0 0 1 217.7129 684.3662)" style="display:inline;fill:#595959; font-family:'ArialNarrow'; font-size:27.5657px;">Email</text>
</g>
<g class="st7">
	
		<text transform="matrix(1 0 0 1 217.7129 745.3662)" style="display:inline;fill:#595959; font-family:'ArialNarrow'; font-size:27.5657px;">Your US State</text>
</g>
<g class="st7">
	
		<text transform="matrix(1 0 0 1 217.7129 799.3662)" style="display:inline;fill:#595959; font-family:'ArialNarrow'; font-size:27.5657px;">Estimated Debt Owed</text>
</g>
<g class="st7">
	
		<text transform="matrix(1 0 0 1 610.7129 745.3662)" style="display:inline;fill:#595959; font-family:'ArialNarrow'; font-size:27.5657px;">Your Zip Code</text>
</g>
<g class="st7">
	
		<text transform="matrix(1 0 0 1 610.7129 684.3662)" style="display:inline;fill:#595959; font-family:'ArialNarrow'; font-size:27.5657px;">Phone</text>
</g>
<g class="st7">
	
		<text transform="matrix(1 0 0 1 610.7129 799.3662)" style="display:inline;fill:#595959; font-family:'ArialNarrow'; font-size:27.5657px;">Are you late on your payments?</text>
</g>
<g class="st7">
	
		<text transform="matrix(1 0 0 1 217.7129 862.3662)" style="display:inline;fill:#595959; font-family:'ArialNarrow'; font-size:27.5657px;">Tell us the best times to call you</text>
</g>
<g class="st7">
	
		<text transform="matrix(1 0 0 1 610.7129 862.3662)" style="display:inline;fill:#595959; font-family:'ArialNarrow'; font-size:27.5657px;">How did you hear about us</text>
</g>
<linearGradient id="SVGID_4_" gradientUnits="userSpaceOnUse" x1="587" y1="1028.4756" x2="587" y2="968.5055" gradientTransform="matrix(-1 0 0 -1 1174 1941)">
	<stop  offset="0.3268" style="stop-color:#F99F19"/>
	<stop  offset="0.3298" style="stop-color:#F99F19"/>
	<stop  offset="0.7172" style="stop-color:#F68D15"/>
	<stop  offset="1" style="stop-color:#F58713"/>
</linearGradient>
<path class="st14" d="M365.5,912.52h443c13.53,0,24.5,10.97,24.5,24.5v10.97c0,13.53-10.97,24.5-24.5,24.5h-443
	c-13.53,0-24.5-10.97-24.5-24.5v-10.97C341,923.49,351.97,912.52,365.5,912.52z"/>
<g class="st7">
	
		<text transform="matrix(1 0 0 1 409.3237 954.7461)" style="display:inline;fill:#FFFFFF; font-family:'Arial-BoldMT'; font-size:39.1942px;">Submit Information</text>
</g>
<g class="st7">
	<defs>
		<rect id="SVGID_5_" x="42" y="1049" width="1083" height="305"/>
	</defs>
	<clipPath id="SVGID_6_" class="st8">
		<use xlink:href="#SVGID_5_"  style="overflow:visible;"/>
	</clipPath>
	<g style="display:inline;clip-path:url(#SVGID_6_);">
		<image style="overflow:visible;" width="1440" height="860" xlink:href="556587DF.jpg"  transform="matrix(1 0 0 1 -203 805)">
		</image>
	</g>
</g>
<g class="st7">
	<defs>
		<rect id="SVGID_7_" x="-2075" y="699" width="1083" height="305"/>
	</defs>
	<clipPath id="SVGID_8_" class="st8">
		<use xlink:href="#SVGID_7_"  style="overflow:visible;"/>
	</clipPath>
	<g style="display:inline;clip-path:url(#SVGID_8_);">
		<image style="overflow:visible;" width="1440" height="860" xlink:href="556587DA.jpg"  transform="matrix(1 0 0 1 -2320 455)">
		</image>
	</g>
</g>
</svg>
